<svg width="100" height="100" viewBox="0 0 100 100" xmlns="http://www.w3.org/2000/svg">
  <!-- Background Circle -->
  <circle cx="50" cy="50" r="50" fill="#9AFF00"/>
  
  <!-- Main Triangle Shape -->
  <g transform="translate(50, 50)">
    <!-- Outer Triangle -->
    <path d="M -20 15 L 0 -25 L 20 15 Z" fill="#000000" stroke="none"/>
    
    <!-- Inner Triangle Cutout -->
    <path d="M -10 8 L 0 -12 L 10 8 Z" fill="#9AFF00" stroke="none"/>
    
    <!-- Left Side Accent -->
    <path d="M -20 15 L -12 2 L -8 8 L -15 15 Z" fill="#9AFF00" stroke="none"/>
    
    <!-- Dynamic Line Element -->
    <line x1="-15" y1="10" x2="8" y2="-5" stroke="#9AFF00" stroke-width="2" stroke-linecap="round"/>
  </g>
  
  <!-- Cyber Tech Accents -->
  <g opacity="0.8">
    <!-- Corner Elements -->
    <rect x="15" y="15" width="8" height="2" fill="#000000" opacity="0.6"/>
    <rect x="15" y="19" width="5" height="2" fill="#000000" opacity="0.4"/>
    
    <rect x="77" y="15" width="8" height="2" fill="#000000" opacity="0.6"/>
    <rect x="80" y="19" width="5" height="2" fill="#000000" opacity="0.4"/>
    
    <rect x="15" y="81" width="8" height="2" fill="#000000" opacity="0.6"/>
    <rect x="15" y="85" width="5" height="2" fill="#000000" opacity="0.4"/>
    
    <rect x="77" y="81" width="8" height="2" fill="#000000" opacity="0.6"/>
    <rect x="80" y="85" width="5" height="2" fill="#000000" opacity="0.4"/>
  </g>
  
  <!-- Glow Effect -->
  <defs>
    <filter id="glow">
      <feGaussianBlur stdDeviation="3" result="coloredBlur"/>
      <feMerge> 
        <feMergeNode in="coloredBlur"/>
        <feMergeNode in="SourceGraphic"/>
      </feMerge>
    </filter>
    
    <radialGradient id="glowGradient" cx="50%" cy="50%" r="50%">
      <stop offset="0%" style="stop-color:#9AFF00;stop-opacity:0.8"/>
      <stop offset="70%" style="stop-color:#9AFF00;stop-opacity:0.4"/>
      <stop offset="100%" style="stop-color:#9AFF00;stop-opacity:0"/>
    </radialGradient>
  </defs>
  
  <!-- Subtle Glow Background -->
  <circle cx="50" cy="50" r="45" fill="url(#glowGradient)" opacity="0.3"/>
  
  <!-- Tech Grid Pattern Overlay -->
  <g opacity="0.1">
    <defs>
      <pattern id="grid" width="10" height="10" patternUnits="userSpaceOnUse">
        <path d="M 10 0 L 0 0 0 10" fill="none" stroke="#000000" stroke-width="0.5"/>
      </pattern>
    </defs>
    <rect width="100" height="100" fill="url(#grid)"/>
  </g>
</svg>
